<svg width="24" height="23" viewBox="0 0 24 23" fill="none" xmlns="http://www.w3.org/2000/svg">
<path d="M4.4165 14.6249H3.33317C2.75853 14.6249 2.20743 14.4054 1.80111 14.0147C1.39478 13.624 1.1665 13.0941 1.1665 12.5416V3.16659C1.1665 2.61405 1.39478 2.08415 1.80111 1.69345C2.20743 1.30275 2.75853 1.08325 3.33317 1.08325H13.0832C13.6578 1.08325 14.2089 1.30275 14.6152 1.69345C15.0216 2.08415 15.2498 2.61405 15.2498 3.16659V4.20825M10.9165 8.37492H20.6665C21.8631 8.37492 22.8332 9.30766 22.8332 10.4583V19.8333C22.8332 20.9838 21.8631 21.9166 20.6665 21.9166H10.9165C9.71989 21.9166 8.74984 20.9838 8.74984 19.8333V10.4583C8.74984 9.30766 9.71989 8.37492 10.9165 8.37492Z" stroke="#1E1E1E" stroke-width="2" stroke-linecap="round" stroke-linejoin="round"/>
</svg>
