<svg width="21" height="23" viewBox="0 0 21 23" fill="none" xmlns="http://www.w3.org/2000/svg">
<path d="M1.875 5.24992H3.79167M3.79167 5.24992H19.125M3.79167 5.24992V19.8333C3.79167 20.3858 3.9936 20.9157 4.35305 21.3064C4.71249 21.6971 5.2 21.9166 5.70833 21.9166H15.2917C15.8 21.9166 16.2875 21.6971 16.647 21.3064C17.0064 20.9157 17.2083 20.3858 17.2083 19.8333V5.24992M6.66667 5.24992V3.16659C6.66667 2.61405 6.8686 2.08415 7.22805 1.69345C7.58749 1.30275 8.075 1.08325 8.58333 1.08325H12.4167C12.925 1.08325 13.4125 1.30275 13.772 1.69345C14.1314 2.08415 14.3333 2.61405 14.3333 3.16659V5.24992M8.58333 10.4583V16.7083M12.4167 10.4583V16.7083" stroke="#1E1E1E" stroke-width="2" stroke-linecap="round" stroke-linejoin="round"/>
</svg>
