<svg width="50" height="50" viewBox="0 0 50 50" fill="none" xmlns="http://www.w3.org/2000/svg">
<path d="M25 0C38.8071 0 50 11.1929 50 25C50 38.8071 38.8071 50 25 50C11.1929 50 0 38.8071 0 25C0 11.1929 11.1929 0 25 0ZM25 4C13.402 4 4 13.402 4 25C4 36.598 13.402 46 25 46C36.598 46 46 36.598 46 25C46 13.402 36.598 4 25 4ZM24.5 42C22.2019 42 19.9259 41.5474 17.8027 40.668C15.6796 39.7885 13.7509 38.499 12.126 36.874C10.501 35.2491 9.21149 33.3204 8.33203 31.1973C7.45257 29.0741 7 26.7981 7 24.5C7 22.2019 7.45257 19.9259 8.33203 17.8027C9.21149 15.6796 10.501 13.7509 12.126 12.126C13.7509 10.501 15.6796 9.21149 17.8027 8.33203C19.9259 7.45257 22.2019 7 24.5 7V42Z" fill="#FFD902"/>
</svg>
